<?xml version="1.0" encoding="UTF-8"?>
<!-- Generator: Adobe Illustrator 27.0.1, SVG Export Plug-In . SVG Version: 6.00 Build 0)  -->
<svg xmlns="http://www.w3.org/2000/svg" xmlns:xlink="http://www.w3.org/1999/xlink" version="1.1" id="Layer_1" x="0px" y="0px" viewBox="0 0 140.75 140.75" style="enable-background:new 0 0 140.75 140.75;" xml:space="preserve">
<style type="text/css">
	.st0{fill:#4D4D4E;}
	.st1{fill:#657A97;}
</style>
<g>
	<g>
		<g>
			<path class="st0" d="M22.64,74.28c-0.22-0.23-0.41-0.55-0.55-0.97c-0.14-0.42-0.22-0.86-0.23-1.32c-0.03-0.93,0.26-1.7,0.84-2.32     c0.59-0.62,1.36-0.94,2.31-0.97c0.53-0.01,1.06,0.08,1.59,0.29c0.53,0.21,0.97,0.55,1.32,1.01c0.36,0.47,0.54,1.07,0.56,1.81     c0.01,0.54-0.05,1-0.19,1.39c-0.14,0.39-0.31,0.69-0.51,0.92l-1.39,0.21l-0.11-0.9l0.89-0.18c0.25-0.4,0.36-0.88,0.35-1.43     c-0.02-0.61-0.24-1.09-0.67-1.44c-0.43-0.35-1.01-0.52-1.75-0.5c-0.77,0.02-1.34,0.23-1.72,0.63c-0.38,0.4-0.56,0.92-0.55,1.55     c0.01,0.53,0.12,0.96,0.31,1.29l0.96,0.13l-0.06,0.9L22.64,74.28z"></path>
			<path class="st0" d="M24.14,74.48l-1.54-0.11l-0.02-0.02c-0.23-0.23-0.42-0.57-0.57-1.01c-0.14-0.43-0.22-0.88-0.23-1.34     c-0.03-0.95,0.27-1.76,0.87-2.39c0.6-0.64,1.4-0.97,2.37-1c0.55-0.01,1.09,0.09,1.63,0.3c0.54,0.22,1,0.57,1.36,1.04     c0.37,0.48,0.56,1.11,0.58,1.86c0.02,0.55-0.05,1.03-0.2,1.43c-0.14,0.4-0.32,0.72-0.53,0.95l-0.02,0.03l-1.52,0.22l-0.14-1.08     l0.93-0.19c0.22-0.38,0.33-0.83,0.31-1.35c-0.02-0.58-0.23-1.04-0.64-1.37c-0.41-0.34-0.98-0.5-1.68-0.48     c-0.74,0.02-1.29,0.22-1.66,0.6c-0.36,0.38-0.54,0.88-0.52,1.48c0.01,0.49,0.11,0.89,0.28,1.21l1,0.14L24.14,74.48z M22.68,74.19     l1.28,0.09l0.05-0.72l-0.92-0.13l-0.02-0.04c-0.2-0.34-0.31-0.79-0.32-1.33c-0.02-0.66,0.17-1.2,0.57-1.62     c0.4-0.42,1-0.64,1.78-0.66c0.74-0.02,1.36,0.16,1.81,0.52c0.45,0.37,0.69,0.88,0.71,1.51c0.02,0.57-0.11,1.07-0.36,1.49     l-0.02,0.03l-0.84,0.17l0.09,0.72l1.26-0.19c0.18-0.22,0.34-0.51,0.47-0.87c0.14-0.37,0.2-0.83,0.18-1.36     c-0.02-0.72-0.2-1.3-0.54-1.75c-0.34-0.45-0.78-0.78-1.28-0.98c-0.51-0.2-1.03-0.3-1.56-0.29c-0.92,0.02-1.67,0.34-2.24,0.94     c-0.57,0.6-0.84,1.36-0.82,2.26c0.01,0.44,0.09,0.88,0.22,1.29C22.31,73.68,22.48,73.98,22.68,74.19z"></path>
		</g>
		<g>
			<path class="st0" d="M23.92,84.41l-0.35-1.46l2.17-1.87l-0.24-1.03l-1.56,0.37l0.17,0.73l-0.91,0.22l-0.6-2.52l0.92-0.22     l0.17,0.72l4.43-1.04l-0.17-0.72l0.92-0.22l0.66,2.78c0.18,0.78,0.16,1.4-0.08,1.86c-0.23,0.46-0.64,0.76-1.23,0.9     c-0.42,0.1-0.8,0.07-1.15-0.08c-0.35-0.15-0.64-0.41-0.86-0.77l-1.56,1.37l0.18,0.77L23.92,84.41z M27.92,81.77     c0.35-0.08,0.58-0.24,0.67-0.48c0.1-0.24,0.09-0.61-0.03-1.1l-0.19-0.82l-2.01,0.47l0.19,0.81c0.12,0.51,0.3,0.85,0.53,1     C27.31,81.81,27.59,81.85,27.92,81.77z"></path>
			<path class="st0" d="M23.85,84.52l-0.38-1.61l2.17-1.87l-0.21-0.89l-1.38,0.33l0.17,0.73l-1.09,0.26l-0.64-2.7l1.09-0.26     l0.17,0.72l4.25-1l-0.17-0.72l1.1-0.26l0.68,2.87c0.19,0.8,0.16,1.44-0.08,1.92c-0.25,0.49-0.68,0.8-1.29,0.95     c-0.43,0.1-0.84,0.07-1.21-0.08c-0.34-0.14-0.62-0.38-0.84-0.71l-1.43,1.27l0.19,0.81L23.85,84.52z M23.68,82.98l0.31,1.32     l0.73-0.17l-0.17-0.73l1.68-1.48L26.29,82c0.21,0.34,0.48,0.59,0.82,0.73c0.33,0.14,0.7,0.17,1.09,0.07     c0.55-0.13,0.95-0.42,1.17-0.85c0.22-0.44,0.25-1.04,0.07-1.8l-0.64-2.69l-0.73,0.17l0.17,0.72l-4.61,1.09l-0.17-0.72l-0.74,0.17     l0.55,2.34L24,81.07l-0.17-0.73l1.74-0.41l0.28,1.18L23.68,82.98z M27.6,81.9c-0.22,0-0.41-0.06-0.58-0.17     c-0.25-0.17-0.44-0.52-0.56-1.06l-0.21-0.9l2.19-0.52l0.21,0.91c0.12,0.52,0.13,0.9,0.03,1.16c-0.11,0.27-0.36,0.45-0.74,0.54     C27.82,81.89,27.71,81.9,27.6,81.9z M27.9,81.68l0.02,0.09L27.9,81.68c0.33-0.08,0.52-0.22,0.61-0.43     c0.09-0.22,0.08-0.57-0.03-1.05l-0.17-0.73l-1.83,0.43l0.17,0.72c0.11,0.49,0.28,0.81,0.49,0.95S27.59,81.75,27.9,81.68z"></path>
		</g>
		<g>
			<path class="st0" d="M27.35,92.72l-2.05-4.45l0.85-0.39l0.31,0.67l4.13-1.91l-0.31-0.67l0.85-0.39l2.02,4.39l-1.61,0.96     l-0.47-0.82l0.82-0.6l-0.86-1.86l-1.62,0.75l1.19,2.57l-0.85,0.39l-1.19-2.57l-1.66,0.77l0.89,1.92l0.99-0.24l0.32,0.89     L27.35,92.72z"></path>
			<path class="st0" d="M27.3,92.83l-2.13-4.61l1.02-0.47l0.31,0.67l3.97-1.83l-0.31-0.67l1.02-0.47l2.1,4.54l-1.76,1.05l-0.55-0.97     l0.83-0.6l-0.79-1.71l-1.45,0.67L30.75,91l-1.02,0.47l-1.19-2.57l-1.49,0.69l0.82,1.77l1-0.24l0.38,1.05L27.3,92.83z      M25.42,88.31l1.98,4.29l1.6-0.54l-0.26-0.72l-0.98,0.24L26.8,89.5l1.83-0.84l1.19,2.57l0.69-0.32l-1.19-2.57l1.79-0.82     l0.93,2.01l-0.82,0.59l0.38,0.67l1.45-0.87l-1.95-4.23l-0.69,0.32l0.31,0.67l-4.3,1.98L26.11,88L25.42,88.31z"></path>
		</g>
		<g>
			<path class="st0" d="M33.35,101.71l-1.46-1.98l0.76-0.56l0.39,0.53l0.51-0.79l-1.43-1.93l-0.91,0.24l0.43,0.58l-0.76,0.56     l-1.45-1.96l0.76-0.56l0.35,0.48l4.81-1.14l-0.56-0.76l0.76-0.56l1.23,1.66l-3.04,5.13l0.37,0.5L33.35,101.71z M34.01,98.19     l1.3-2.01l-0.04-0.05l-2.33,0.61L34.01,98.19z"></path>
			<path class="st0" d="M33.33,101.84l-1.57-2.13l0.9-0.67l0.36,0.49l0.41-0.62l-1.35-1.83l-0.72,0.19l0.4,0.55l-0.91,0.67     l-1.56-2.11l0.91-0.67l0.37,0.5l4.62-1.1l-0.53-0.72l0.9-0.67l1.32,1.79l-0.03,0.05l-3.01,5.07l0.39,0.53L33.33,101.84z      M32.01,99.75l1.35,1.83l0.61-0.45l-0.35-0.48l0.03-0.05l3.01-5.07l-1.14-1.54l-0.61,0.45l0.59,0.79l-5.01,1.19l-0.33-0.45     l-0.61,0.45l1.34,1.81l0.61-0.45l-0.45-0.62l1.11-0.3l1.5,2.04l-0.62,0.95l-0.41-0.56L32.01,99.75z M34.02,98.36l-1.22-1.66     l2.52-0.66l0.11,0.15L34.02,98.36z M33.1,96.81l0.9,1.22l1.14-1.76L33.1,96.81z"></path>
		</g>
		<g>
			<path class="st0" d="M42.76,104.8L42,104.22l0.69-1.05l-0.93-0.85l-3.07,3.36l0.8,0.73l-0.63,0.69l-2.37-2.17l0.63-0.69l0.77,0.7     l3.07-3.36l-0.93-0.85l-0.98,0.78l-0.64-0.69l1.56-1.41l4.07,3.72L42.76,104.8z"></path>
			<path class="st0" d="M38.86,107.23l-2.51-2.3l0.76-0.83l0.77,0.7l2.95-3.22l-0.81-0.74l-0.99,0.78l-0.76-0.82l1.69-1.53     l4.19,3.83l-1.38,1.82l-0.9-0.69l0.69-1.05l-0.8-0.73l-2.95,3.22l0.8,0.73L38.86,107.23z M36.61,104.93l2.24,2.05l0.51-0.56     l-0.8-0.73l3.2-3.5l1.05,0.96l-0.68,1.04l0.61,0.47l1.16-1.54l-3.94-3.61l-1.43,1.3l0.52,0.56l0.98-0.78l1.06,0.97l-3.2,3.5     l-0.77-0.7L36.61,104.93z"></path>
		</g>
		<g>
			<path class="st0" d="M45.31,111.75l-2.17-1.39l0.51-0.79l0.63,0.4l2.45-3.83l-0.63-0.4l0.51-0.79l2.17,1.39l-0.51,0.79     l-0.62-0.39l-2.45,3.83l0.62,0.39L45.31,111.75z"></path>
			<path class="st0" d="M45.34,111.88l-2.32-1.49l0.61-0.95l0.63,0.4l2.35-3.68l-0.62-0.4l0.61-0.95l2.32,1.49l-0.61,0.95     l-0.62-0.39l-2.35,3.68l0.62,0.39L45.34,111.88z M43.27,110.33l2.01,1.29l0.41-0.64l-0.62-0.39l2.55-3.99l0.62,0.39l0.41-0.64     l-2.01-1.29l-0.41,0.64l0.63,0.4l-2.55,3.99l-0.63-0.4L43.27,110.33z"></path>
		</g>
		<g>
			<path class="st0" d="M56.88,111.17l-0.55-0.23l-4.23,4.19l-0.73-0.3l-0.02-5.95l-0.57-0.24l0.36-0.87l2.34,0.97l-0.36,0.87     l-0.66-0.27l-0.05,4.1l0.05,0.02l2.83-2.95l-0.67-0.28l0.36-0.87l2.25,0.93L56.88,111.17z"></path>
			<path class="st0" d="M52.13,115.24l-0.85-0.35l-0.02-5.95l-0.6-0.25l0.43-1.04l2.51,1.04l-0.43,1.04l-0.62-0.26l-0.05,3.8     l2.62-2.73l-0.63-0.26l0.43-1.04l2.42,1l-0.43,1.04l-0.58-0.24L52.13,115.24z M51.47,114.77l0.62,0.26l4.23-4.19l0.52,0.22     l0.29-0.7l-2.08-0.86l-0.29,0.7l0.71,0.29l-2.97,3.09l-0.16-0.07l0.05-4.3l0.7,0.29l0.29-0.7l-2.17-0.9l-0.29,0.7l0.54,0.22     L51.47,114.77z"></path>
		</g>
		<g>
			<path class="st0" d="M63.47,118.24l-4.81-0.92l0.18-0.92l0.73,0.14l0.85-4.47l-0.73-0.14l0.18-0.92l4.74,0.9l-0.15,1.86     l-0.94-0.1l-0.01-1.02l-2.01-0.38l-0.33,1.75l2.78,0.53l-0.18,0.92l-2.78-0.53l-0.34,1.8l2.08,0.4l0.38-0.94l0.91,0.25     L63.47,118.24z"></path>
			<path class="st0" d="M63.53,118.34l-4.98-0.95l0.21-1.11l0.73,0.14l0.82-4.29L59.58,112l0.21-1.11l4.92,0.94l-0.17,2.04     l-1.11-0.12l-0.01-1.03l-1.85-0.35l-0.3,1.57l2.78,0.53l-0.21,1.11l-2.78-0.53l-0.31,1.62l1.91,0.36l0.38-0.95l1.08,0.3     L63.53,118.34z M58.77,117.25l4.64,0.88l0.49-1.62l-0.74-0.21l-0.38,0.94l-2.25-0.43l0.38-1.98l2.78,0.53l0.14-0.74l-2.78-0.53     l0.37-1.93l2.18,0.41l0.01,1.01l0.76,0.08l0.14-1.69l-4.57-0.87l-0.14,0.74l0.73,0.14l-0.89,4.65l-0.73-0.14L58.77,117.25z"></path>
		</g>
		<g>
			<path class="st0" d="M77.99,118.08l-4.87,0.54l-0.1-0.93l0.74-0.08l-0.5-4.52l-0.74,0.08l-0.1-0.93l4.8-0.54l0.4,1.83l-0.93,0.18     l-0.31-0.97l-2.04,0.23l0.2,1.77l2.81-0.31l0.1,0.93l-2.81,0.31l0.2,1.82l2.1-0.23l0.09-1.02l0.94-0.03L77.99,118.08z"></path>
			<path class="st0" d="M73.04,118.73l-0.12-1.12l0.74-0.08l-0.48-4.34l-0.74,0.08l-0.13-1.12l4.97-0.55l0.44,2l-1.1,0.22     l-0.31-0.98l-1.87,0.21l0.18,1.59l2.81-0.31l0.12,1.12l-2.81,0.31l0.18,1.64l1.94-0.22l0.09-1.02l1.12-0.03l0.01,2.05     L73.04,118.73z M73.12,117.77l0.08,0.75L77.9,118l-0.01-1.69l-0.77,0.02l-0.08,1.01l-2.27,0.25l-0.22-2l2.81-0.31l-0.08-0.75     l-2.81,0.31l-0.22-1.95l2.2-0.25l0.31,0.96l0.75-0.15l-0.36-1.65l-4.62,0.52l0.08,0.75l0.74-0.08l0.52,4.71L73.12,117.77z"></path>
		</g>
		<g>
			<path class="st0" d="M86.93,115.74l-4.54,1.42l-0.28-0.9l0.71-0.22l-1.36-4.35l-0.71,0.22l-0.28-0.9l2.67-0.83l0.28,0.9     l-0.92,0.29l1.36,4.35l1.89-0.59l-0.21-1.33l0.92-0.2L86.93,115.74z"></path>
			<path class="st0" d="M82.33,117.28l-0.33-1.07l0.71-0.22l-1.3-4.17l-0.71,0.22l-0.33-1.07l2.85-0.89l0.33,1.07l-0.92,0.29     l1.3,4.17l1.73-0.54l-0.21-1.34l1.1-0.24l0.5,2.33L82.33,117.28z M82.22,116.32l0.23,0.72l4.38-1.36l-0.43-1.98l-0.75,0.17     l0.21,1.33l-2.05,0.64l-1.41-4.52l0.92-0.29l-0.23-0.72l-2.5,0.78l0.22,0.72l0.71-0.22l1.41,4.52L82.22,116.32z"></path>
		</g>
		<g>
			<path class="st0" d="M95.19,111.77l-4.31,2.32l-0.45-0.83l0.65-0.35l-2.16-4.01l-0.65,0.35l-0.45-0.83l4.25-2.29l1.06,1.54     l-0.79,0.52l-0.65-0.79l-1.8,0.97l0.85,1.57l2.49-1.34l0.45,0.83l-2.49,1.34l0.87,1.61l1.86-1l-0.3-0.97l0.86-0.38L95.19,111.77z     "></path>
			<path class="st0" d="M90.84,114.22l-0.53-0.99l0.65-0.35l-2.07-3.84l-0.65,0.35l-0.53-0.99l4.41-2.37l1.16,1.69l-0.94,0.61     l-0.65-0.79l-1.66,0.89l0.76,1.41l2.49-1.34l0.53,0.99l-2.49,1.34l0.78,1.45l1.72-0.92l-0.3-0.98l1.03-0.45l0.78,1.9     L90.84,114.22z M90.55,113.31l0.36,0.66l4.16-2.24l-0.64-1.57l-0.7,0.31l0.3,0.97l-2.01,1.08l-0.96-1.77l2.49-1.34l-0.36-0.66     l-2.49,1.34l-0.93-1.73l1.95-1.05l0.64,0.78l0.64-0.42l-0.96-1.4l-4.1,2.21l0.36,0.66l0.65-0.35l2.25,4.17L90.55,113.31z"></path>
		</g>
		<g>
			<path class="st0" d="M102.05,103.39l-0.3,0.25l1.62,1.93l-0.65,0.55l-0.57-0.51c0.01,0.32-0.06,0.64-0.2,0.97     c-0.15,0.33-0.39,0.63-0.72,0.91c-0.69,0.58-1.44,0.8-2.26,0.66c-0.82-0.14-1.52-0.56-2.12-1.27c-0.59-0.7-0.88-1.49-0.87-2.36     c0.01-0.87,0.41-1.64,1.2-2.3c0.4-0.34,0.8-0.58,1.21-0.73s0.77-0.22,1.07-0.2l0.99,0.9l-0.63,0.65l-0.66-0.51     c-0.46,0.04-0.92,0.26-1.38,0.64c-0.46,0.39-0.7,0.86-0.73,1.42c-0.03,0.56,0.2,1.13,0.69,1.71c0.48,0.57,0.99,0.89,1.52,0.97     c0.54,0.07,1.03-0.08,1.48-0.45c0.38-0.32,0.59-0.67,0.64-1.06c0.05-0.39-0.06-0.74-0.33-1.05l-0.15-0.18l-1.05,0.88l-0.6-0.72     l2.18-1.83L102.05,103.39z"></path>
			<path class="st0" d="M99.44,108.29c-0.16,0-0.31-0.01-0.47-0.04c-0.84-0.14-1.57-0.58-2.17-1.3c-0.6-0.72-0.9-1.53-0.89-2.42     c0.01-0.89,0.42-1.69,1.23-2.37c0.41-0.34,0.82-0.59,1.24-0.74c0.42-0.15,0.79-0.22,1.11-0.2l0.03,0l1.08,0.99l-0.76,0.77     l-0.69-0.53c-0.43,0.05-0.86,0.26-1.29,0.61c-0.44,0.37-0.67,0.82-0.7,1.35c-0.03,0.53,0.2,1.09,0.67,1.65     c0.46,0.55,0.96,0.86,1.47,0.94c0.51,0.07,0.97-0.07,1.41-0.43c0.36-0.3,0.56-0.64,0.6-1c0.04-0.36-0.06-0.68-0.31-0.98     l-0.09-0.11l-1.05,0.88l-0.72-0.86l2.32-1.95l0.72,0.86l-0.3,0.25l1.62,1.93l-0.78,0.66l-0.48-0.43     c-0.02,0.27-0.09,0.54-0.21,0.81c-0.15,0.34-0.4,0.66-0.74,0.95C100.73,108.05,100.11,108.29,99.44,108.29z M99.38,101.4     c-0.27,0-0.59,0.07-0.95,0.2c-0.4,0.15-0.79,0.38-1.18,0.71c-0.76,0.64-1.15,1.39-1.16,2.23c-0.01,0.84,0.28,1.62,0.85,2.3     c0.58,0.69,1.27,1.1,2.06,1.23c0.79,0.13,1.52-0.08,2.18-0.64c0.32-0.27,0.55-0.57,0.69-0.88c0.14-0.31,0.21-0.63,0.2-0.93     l-0.01-0.21l0.67,0.6l0.52-0.44l-1.62-1.93l0.3-0.25l-0.49-0.58l-2.04,1.71l0.49,0.58l1.05-0.88l0.21,0.25     c0.28,0.33,0.4,0.71,0.35,1.12c-0.05,0.41-0.27,0.79-0.67,1.12c-0.47,0.39-0.99,0.55-1.55,0.48c-0.56-0.08-1.09-0.41-1.58-1     c-0.5-0.6-0.74-1.19-0.71-1.77c0.03-0.58,0.29-1.08,0.77-1.48c0.47-0.39,0.95-0.61,1.43-0.66l0.04,0l0.62,0.48l0.51-0.52     l-0.89-0.81C99.42,101.4,99.4,101.4,99.38,101.4z"></path>
		</g>
		<g>
			<path class="st0" d="M110.42,97.33l-1.51,1.95l-0.74-0.58l0.4-0.52l-0.9-0.28l-1.48,1.9l0.48,0.81l0.44-0.57l0.74,0.58     l-1.49,1.92l-0.74-0.58l0.36-0.47l-2.4-4.33l-0.58,0.74l-0.74-0.58l1.27-1.63l5.76,1.54l0.38-0.49L110.42,97.33z M106.86,97.64     l-2.28-0.71l-0.04,0.05l1.22,2.08L106.86,97.64z"></path>
			<path class="st0" d="M106.39,102.67l-0.89-0.69l0.38-0.49l-2.3-4.15l-0.55,0.7l-0.89-0.69l1.36-1.75l5.76,1.54l0.4-0.52     l0.89,0.69l-1.63,2.09l-0.89-0.69l0.38-0.48l-0.71-0.22l-1.4,1.8l0.38,0.64l0.42-0.54l0.89,0.69L106.39,102.67z M105.76,101.95     l0.6,0.46l1.38-1.78l-0.6-0.46l-0.47,0.6l-0.58-0.99l1.55-2l1.08,0.34l-0.43,0.55l0.6,0.46l1.4-1.8l-0.6-0.46l-0.36,0.47     l-5.76-1.54l-1.18,1.51l0.6,0.46l0.61-0.78l2.5,4.5L105.76,101.95z M105.75,99.22l-1.32-2.25l0.11-0.15l2.47,0.77L105.75,99.22z      M104.7,97.07l1.07,1.82l0.93-1.2L104.7,97.07z"></path>
		</g>
		<g>
			<path class="st0" d="M110.44,85.44l-0.32,0.67l4.97,2.34l-0.26,0.58l-5.55,1.33l-0.02,0.04l3.18,1.49l0.4-0.85l0.85,0.4     l-1.14,2.43l-0.85-0.4l0.3-0.64l-4.12-1.94l-0.35,0.73l-0.85-0.4l0.69-1.46l5.29-1.26l0.02-0.04l-3-1.41l-0.4,0.85l-0.85-0.4     l1.15-2.45L110.44,85.44z"></path>
			<path class="st0" d="M112.6,93.98l-1.02-0.48l0.3-0.64L107.93,91l-0.35,0.73l-1.02-0.48l0.74-1.58l0.04-0.01l5.1-1.22l-2.72-1.28     l-0.4,0.85l-1.02-0.48l1.23-2.62l1.02,0.48l-0.32,0.67l4.97,2.34l-0.32,0.7l-5.4,1.29l2.9,1.36l0.4-0.85l1.02,0.48L112.6,93.98z      M111.82,93.41l0.68,0.32l1.06-2.26l-0.68-0.32l-0.4,0.85l-3.35-1.57l0.08-0.16l5.55-1.33l0.2-0.45L110,86.15l0.32-0.67     l-0.68-0.32l-1.07,2.29l0.68,0.32l0.4-0.85l3.17,1.49l-0.08,0.16l-5.29,1.26l-0.63,1.34l0.68,0.32l0.35-0.73l4.29,2.01     L111.82,93.41z"></path>
		</g>
		<g>
			<path class="st0" d="M117.31,78.32c0.16,0.27,0.26,0.63,0.29,1.07c0.03,0.44,0,0.89-0.1,1.33c-0.2,0.91-0.67,1.59-1.39,2.05     c-0.72,0.46-1.55,0.58-2.47,0.37c-0.52-0.12-1.01-0.34-1.47-0.68c-0.46-0.33-0.8-0.77-1.03-1.31c-0.23-0.54-0.26-1.17-0.1-1.89     c0.12-0.53,0.29-0.96,0.53-1.3c0.23-0.34,0.47-0.6,0.72-0.77l1.4,0.14l-0.11,0.9l-0.9-0.04c-0.34,0.33-0.57,0.76-0.69,1.31     c-0.13,0.59-0.03,1.11,0.3,1.56c0.33,0.45,0.85,0.76,1.57,0.92c0.75,0.17,1.35,0.11,1.82-0.19c0.47-0.29,0.77-0.75,0.91-1.37     c0.12-0.51,0.12-0.96,0.01-1.33l-0.9-0.37l0.28-0.86L117.31,78.32z"></path>
			<path class="st0" d="M114.48,83.33c-0.28,0-0.56-0.03-0.86-0.1c-0.53-0.12-1.04-0.35-1.5-0.69c-0.47-0.34-0.83-0.79-1.07-1.35     c-0.24-0.55-0.27-1.21-0.11-1.95c0.12-0.54,0.3-0.98,0.54-1.33c0.24-0.35,0.49-0.62,0.74-0.79l0.03-0.02l1.53,0.16l-0.13,1.08     l-0.95-0.04c-0.31,0.31-0.52,0.73-0.64,1.23c-0.13,0.57-0.04,1.06,0.28,1.49c0.32,0.43,0.83,0.73,1.51,0.88     c0.72,0.16,1.31,0.1,1.75-0.18c0.44-0.28,0.74-0.72,0.87-1.31c0.11-0.48,0.12-0.89,0.03-1.24l-0.94-0.38l0.34-1.03l1.46,0.48     l0.02,0.03c0.17,0.28,0.27,0.66,0.3,1.12c0.03,0.45,0,0.91-0.1,1.36c-0.21,0.93-0.69,1.64-1.43,2.1     C115.65,83.17,115.09,83.33,114.48,83.33z M112.3,77.29c-0.23,0.17-0.45,0.41-0.67,0.73c-0.22,0.33-0.4,0.76-0.51,1.27     c-0.16,0.7-0.12,1.31,0.1,1.83c0.22,0.52,0.56,0.95,1,1.27c0.45,0.32,0.93,0.55,1.44,0.66c0.9,0.2,1.71,0.08,2.4-0.36     c0.7-0.44,1.15-1.11,1.35-1.99c0.1-0.43,0.13-0.87,0.1-1.3c-0.03-0.41-0.12-0.75-0.26-1l-1.22-0.4l-0.23,0.69l0.86,0.35     l0.01,0.04c0.11,0.38,0.11,0.84-0.01,1.37c-0.14,0.64-0.46,1.12-0.95,1.43c-0.49,0.31-1.12,0.37-1.89,0.2     c-0.73-0.17-1.28-0.49-1.62-0.95c-0.35-0.47-0.45-1.02-0.31-1.64c0.13-0.56,0.37-1.01,0.72-1.35l0.03-0.03l0.86,0.04l0.09-0.72     L112.3,77.29z"></path>
		</g>
		<g>
			<path class="st0" d="M118.55,69.04l-0.1,4.9l-0.94-0.02l0.02-0.74l-4.55-0.1l-0.02,0.74l-0.94-0.02l0.1-4.83l1.86-0.16l0.06,0.94     l-1,0.18L113,71.98l1.78,0.04l0.06-2.83l0.94,0.02l-0.06,2.83l1.83,0.04l0.05-2.12l-0.99-0.22l0.1-0.94L118.55,69.04z"></path>
			<path class="st0" d="M118.54,74.03l-1.12-0.02l0.02-0.74l-4.37-0.09l-0.02,0.74l-1.12-0.02l0.11-5l2.04-0.17l0.07,1.12     l-1.01,0.18l-0.04,1.88l1.6,0.03l0.06-2.83l1.12,0.02l-0.06,2.83l1.65,0.04l0.04-1.95l-1-0.22l0.12-1.11l2.03,0.26L118.54,74.03z      M117.6,73.83l0.75,0.02l0.1-4.72l-1.68-0.21l-0.08,0.76l0.99,0.22l-0.05,2.29l-2.02-0.04l0.06-2.83l-0.75-0.02l-0.06,2.83     l-1.97-0.04l0.05-2.22l1-0.18l-0.05-0.76l-1.69,0.14l-0.1,4.65l0.76,0.02l0.02-0.74l4.74,0.1L117.6,73.83z"></path>
		</g>
	</g>
	<g>
		<g>
			<g>
				<g>
					<path class="st1" d="M67.58,55.73c1.12,0.6,1.77,1.92,1.77,3.7v23.4c0,4.04-0.4,6.8-2.15,7.92c1.22-0.23,2.3-0.67,3.37-1.38       c1.85-1.18,2.86-3.61,2.86-6.86V59.43c0-1.69,0.68-3.06,1.8-3.7H67.58z M59.3,82.86c-1.31,0-2.02,1.2-2.02,2.33       c0.11,3.31,2.99,4.74,5.59,5.23c-0.33-0.2-0.61-0.45-0.86-0.75c-0.73-0.88-0.99-2.09-0.74-3.4c0.25-1.13,0.12-2.12-0.37-2.73       C60.54,83.09,60,82.86,59.3,82.86z M81.76,62.04c1.26-0.35,1.62-1.7,1.32-2.79c-0.99-3.16-4.15-3.78-6.78-3.55       c0.37,0.11,0.71,0.27,1.03,0.49c0.94,0.66,1.51,1.75,1.62,3.08c0.06,1.15,0.45,2.07,1.09,2.53       C80.5,62.15,81.08,62.23,81.76,62.04z"></path>
				</g>
			</g>
		</g>
		<g>
			<path class="st1" d="M62.68,56.84c-0.2,0.13-0.39,0.27-0.58,0.41c-2.23,1.64-3.41,3.9-3.52,6.73c-0.15,2.62,0.53,4.87,2.01,6.71     c1.45,1.76,4.24,3.14,8.28,4.11c4.84,1.13,8.05,2.52,9.83,4.24c1.79,1.74,2.64,3.8,2.53,6.12c-0.07,1.66-0.55,3-1.45,4     c1.98-1.57,3.05-3.79,3.28-6.78c0.77-6.73-2.86-10.3-12.54-12.33c-5.63-1.19-8.78-3.7-9.38-7.46     C60.8,60.4,61.38,58.28,62.68,56.84z"></path>
		</g>
	</g>
	<g>
		<path class="st0" d="M70.23,134.85c-35.56,0-64.48-28.93-64.48-64.48c0-35.56,28.93-64.48,64.48-64.48s64.48,28.93,64.48,64.48    C134.71,105.92,105.79,134.85,70.23,134.85z M70.23,8.7c-34,0-61.67,27.66-61.67,61.67c0,34,27.66,61.67,61.67,61.67    s61.67-27.66,61.67-61.67C131.9,36.36,104.24,8.7,70.23,8.7z"></path>
	</g>
	<g>
		<g>
			<path class="st0" d="M34.99,49.84c1.1,0.49,1.78,1.24,2.03,2.24c0.25,1,0.08,2.15-0.5,3.45c-0.32,0.72-0.73,1.4-1.24,2.03     c-0.5,0.63-1.03,1.07-1.59,1.32l-2.49-1.5l0.94-1.68l1.29,0.59c0.36-0.28,0.62-0.55,0.77-0.79c0.16-0.24,0.27-0.46,0.36-0.65     c0.26-0.58,0.4-1.09,0.41-1.52c0.02-0.44-0.24-0.77-0.78-1.01c-0.59-0.26-1.08-0.22-1.48,0.13c-0.4,0.35-0.78,0.79-1.15,1.33     c-0.32,0.47-0.67,0.93-1.07,1.38c-0.4,0.44-0.87,0.75-1.41,0.93c-0.54,0.18-1.2,0.1-1.96-0.25c-1.19-0.53-1.85-1.31-1.97-2.33     c-0.13-1.02,0.02-2.02,0.45-2.98c0.31-0.7,0.71-1.32,1.21-1.86c0.49-0.54,1-0.9,1.51-1.07l2.35,0.93l-0.62,1.82l-1.31-0.41     c-0.31,0.19-0.56,0.41-0.74,0.66c-0.19,0.25-0.34,0.5-0.46,0.77c-0.19,0.44-0.28,0.83-0.26,1.19c0.02,0.36,0.23,0.62,0.61,0.79     c0.45,0.2,0.84,0.15,1.18-0.14c0.34-0.29,0.67-0.66,0.99-1.09c0.28-0.4,0.63-0.85,1.05-1.37c0.42-0.51,0.94-0.9,1.57-1.15     C33.31,49.36,34.08,49.44,34.99,49.84z"></path>
			<path class="st0" d="M33.68,59.07l-2.72-1.64l1.11-1.97l1.33,0.61c0.3-0.24,0.52-0.47,0.65-0.68c0.15-0.24,0.26-0.44,0.34-0.62     c0.25-0.55,0.38-1.05,0.4-1.46c0.01-0.36-0.2-0.64-0.67-0.84c-0.53-0.23-0.95-0.2-1.29,0.1c-0.38,0.34-0.76,0.77-1.12,1.3     c-0.32,0.48-0.68,0.95-1.09,1.39c-0.42,0.46-0.92,0.79-1.49,0.98c-0.58,0.19-1.28,0.11-2.09-0.25c-1.24-0.55-1.94-1.39-2.08-2.47     c-0.13-1.05,0.03-2.08,0.47-3.07c0.32-0.71,0.73-1.35,1.24-1.9c0.51-0.56,1.04-0.93,1.58-1.12l0.06-0.02l2.57,1.02l-0.72,2.15     l-1.4-0.43c-0.26,0.17-0.47,0.36-0.63,0.57c-0.18,0.24-0.33,0.48-0.44,0.73c-0.18,0.41-0.26,0.78-0.24,1.11     c0.02,0.29,0.18,0.5,0.5,0.64c0.38,0.17,0.71,0.13,0.99-0.11c0.33-0.28,0.65-0.64,0.97-1.06c0.28-0.39,0.63-0.86,1.05-1.37     c0.44-0.53,0.99-0.94,1.64-1.2c0.67-0.27,1.49-0.19,2.44,0.23h0c1.15,0.51,1.86,1.3,2.12,2.35c0.26,1.03,0.09,2.23-0.51,3.56     c-0.32,0.73-0.75,1.43-1.26,2.07c-0.52,0.65-1.08,1.11-1.66,1.37L33.68,59.07z M31.44,57.31l2.26,1.36     c0.5-0.24,0.98-0.66,1.44-1.23c0.49-0.62,0.9-1.29,1.21-1.99c0.56-1.26,0.72-2.38,0.49-3.33c-0.24-0.95-0.87-1.65-1.93-2.12l0,0     c-0.86-0.38-1.58-0.46-2.16-0.23c-0.6,0.24-1.1,0.61-1.5,1.09c-0.42,0.51-0.77,0.97-1.04,1.36c-0.33,0.44-0.67,0.82-1.02,1.12     c-0.39,0.34-0.85,0.4-1.37,0.17c-0.44-0.2-0.68-0.51-0.71-0.94c-0.03-0.38,0.06-0.81,0.27-1.27c0.12-0.27,0.28-0.54,0.48-0.8     c0.2-0.27,0.47-0.5,0.79-0.7l0.07-0.04l1.22,0.38l0.51-1.5l-2.13-0.84c-0.46,0.17-0.92,0.51-1.38,1.01     c-0.48,0.52-0.88,1.13-1.18,1.81c-0.41,0.93-0.56,1.9-0.44,2.88c0.12,0.97,0.73,1.68,1.87,2.19c0.72,0.32,1.34,0.4,1.83,0.24     c0.51-0.17,0.96-0.46,1.34-0.88c0.39-0.43,0.75-0.89,1.06-1.36c0.38-0.55,0.78-1.01,1.18-1.37c0.45-0.39,1.01-0.45,1.67-0.15     c0.6,0.27,0.9,0.67,0.88,1.18c-0.02,0.46-0.16,0.99-0.43,1.59c-0.09,0.19-0.21,0.42-0.37,0.67c-0.16,0.26-0.44,0.54-0.82,0.84     l-0.08,0.07l-1.24-0.57L31.44,57.31z"></path>
		</g>
		<g>
			<path class="st0" d="M44.43,35.64c1.16,1.18,1.77,2.56,1.85,4.14c0.08,1.58-0.56,3.04-1.91,4.36c-1.35,1.33-2.81,1.93-4.36,1.8     c-1.55-0.13-2.9-0.78-4.04-1.93c-1.19-1.21-1.81-2.6-1.85-4.18c-0.05-1.58,0.58-3.01,1.89-4.29c1.33-1.31,2.78-1.91,4.35-1.8     C41.92,33.84,43.28,34.48,44.43,35.64z M42.62,37.52c-0.87-0.89-1.75-1.37-2.65-1.47c-0.89-0.09-1.73,0.24-2.5,1.01     c-0.83,0.81-1.17,1.67-1.04,2.57c0.13,0.9,0.58,1.74,1.35,2.53c0.75,0.76,1.58,1.23,2.5,1.41c0.92,0.19,1.82-0.15,2.7-1.02     c0.81-0.8,1.15-1.63,1.03-2.51C43.88,39.17,43.42,38.33,42.62,37.52z"></path>
			<path class="st0" d="M40.42,46.14c-0.14,0-0.28-0.01-0.43-0.02c-1.59-0.13-2.99-0.8-4.15-1.99c-1.22-1.24-1.86-2.68-1.9-4.3     c-0.05-1.62,0.6-3.11,1.94-4.42c1.36-1.34,2.87-1.96,4.48-1.85c1.61,0.11,3.02,0.77,4.19,1.96c1.18,1.2,1.82,2.63,1.9,4.26     c0.08,1.63-0.58,3.14-1.96,4.5C43.23,45.52,41.86,46.14,40.42,46.14z M40,33.9c-1.39,0-2.69,0.59-3.88,1.76     c-1.26,1.24-1.88,2.64-1.83,4.16c0.04,1.53,0.65,2.9,1.8,4.07c1.1,1.12,2.43,1.76,3.93,1.88c1.49,0.13,2.91-0.46,4.22-1.75     c1.3-1.28,1.93-2.7,1.85-4.23c-0.07-1.53-0.68-2.89-1.8-4.02c-1.11-1.13-2.44-1.75-3.96-1.86C40.22,33.9,40.11,33.9,40,33.9z      M40.76,43.79c-0.17,0-0.34-0.02-0.52-0.05c-0.95-0.19-1.82-0.68-2.59-1.46c-0.79-0.81-1.27-1.69-1.4-2.62     c-0.14-0.96,0.23-1.87,1.09-2.72c0.81-0.8,1.7-1.15,2.65-1.06c0.93,0.1,1.86,0.61,2.76,1.52c0.82,0.83,1.3,1.72,1.43,2.63     c0.13,0.93-0.23,1.82-1.08,2.66C42.34,43.42,41.56,43.79,40.76,43.79z M39.69,36.21c-0.74,0-1.45,0.33-2.1,0.97     c-0.79,0.78-1.11,1.57-0.99,2.42c0.13,0.86,0.57,1.68,1.31,2.43c0.72,0.73,1.53,1.19,2.41,1.37c0.87,0.17,1.7-0.14,2.54-0.97     c0.77-0.76,1.09-1.53,0.98-2.36c-0.12-0.83-0.57-1.65-1.33-2.43l0,0c-0.84-0.85-1.69-1.33-2.54-1.41     C39.87,36.22,39.78,36.21,39.69,36.21z"></path>
		</g>
		<g>
			<path class="st0" d="M59.67,34.61l-8.03,3.46l-0.81-1.88l1.15-0.5l-2.99-6.94l-1.15,0.5l-0.81-1.88l4.85-2.09l0.81,1.88     l-1.5,0.65l2.99,6.95l2.8-1.21l-0.56-2.22l1.95-0.64L59.67,34.61z"></path>
			<path class="st0" d="M51.55,38.3l-0.95-2.2l1.15-0.5l-2.85-6.62l-1.15,0.5l-0.95-2.2l5.18-2.23l0.95,2.2l-1.5,0.65l2.85,6.62     l2.5-1.08l-0.57-2.23l2.27-0.75l1.41,4.25L51.55,38.3z M51.07,36.29l0.67,1.55l7.72-3.33l-1.2-3.61l-1.62,0.54l0.56,2.2     l-3.1,1.34l-3.13-7.27l1.5-0.65l-0.67-1.55l-4.53,1.95l0.67,1.55l1.15-0.5l3.13,7.27L51.07,36.29z"></path>
		</g>
		<g>
			<path class="st0" d="M72.25,33.15l-8.73,0.56l-0.13-2.04l1.25-0.08l-0.49-7.55l-1.25,0.08l-0.13-2.04l5.28-0.34l0.13,2.04     l-1.63,0.11l0.49,7.55l3.04-0.2l0.21-2.28l2.05,0.05L72.25,33.15z"></path>
			<path class="st0" d="M63.35,33.9l-0.15-2.39l1.25-0.08l-0.46-7.2l-1.25,0.08l-0.15-2.39l5.63-0.36l0.15,2.39l-1.63,0.11l0.46,7.2     l2.71-0.18l0.21-2.29l2.39,0.05l-0.1,4.47L63.35,33.9z M63.57,31.84l0.11,1.69l8.39-0.54l0.08-3.8l-1.71-0.04l-0.21,2.26     l-3.37,0.22l-0.51-7.9l1.63-0.11l-0.11-1.69l-4.92,0.32l0.11,1.69l1.25-0.08l0.51,7.9L63.57,31.84z"></path>
		</g>
		<g>
			<path class="st0" d="M88.15,26.96l-0.97-0.27l-4.62,3.96l-0.67,2.42l1.83,0.51l-0.55,1.97l-5.87-1.63l0.55-1.97l1.73,0.48     l0.68-2.43l-2.02-5.79l-1-0.28l0.55-1.97l4.64,1.29l-0.55,1.97l-0.93-0.26l1.09,3.36l0.1,0.03l2.65-2.31l-1.07-0.3l0.55-1.97     l4.42,1.23L88.15,26.96z"></path>
			<path class="st0" d="M83.3,35.76l-6.21-1.73l0.64-2.31l1.73,0.48l0.62-2.21l-1.97-5.65l-1.08-0.3l0.64-2.31l4.98,1.39L82,25.43     l-0.79-0.22l0.94,2.88l2.28-1.99l-0.93-0.26l0.64-2.31l4.76,1.32l-0.64,2.31l-1.05-0.29l-4.51,3.87l-0.61,2.2l1.83,0.51     L83.3,35.76z M77.52,33.79l5.53,1.54l0.45-1.63l-1.83-0.51l0.73-2.64l4.73-4.06l0.89,0.25l0.45-1.63l-4.08-1.13l-0.45,1.63     l1.22,0.34l-2.97,2.59l-0.29-0.08l-1.23-3.76l1.08,0.3l0.45-1.63l-4.3-1.2l-0.45,1.63l0.92,0.26l2.07,5.93l-0.74,2.66l-1.73-0.48     L77.52,33.79z"></path>
		</g>
		<g>
			<path class="st0" d="M105.42,39.56l-0.77-0.75l-4.38,4.52c-0.81,0.84-1.66,1.24-2.53,1.21c-0.87-0.04-1.68-0.42-2.44-1.15     c-0.71-0.69-1.11-1.38-1.19-2.08c-0.08-0.7-0.01-1.34,0.22-1.94l2.1,0.26c-0.22,0.52-0.28,0.93-0.19,1.24     c0.09,0.31,0.24,0.56,0.45,0.76c0.35,0.34,0.69,0.5,1,0.47c0.32-0.03,0.6-0.17,0.85-0.43l4.39-4.53l-1.47-1.42l1.42-1.47     l3.96,3.84L105.42,39.56z"></path>
			<path class="st0" d="M97.85,44.71c-0.04,0-0.08,0-0.12,0c-0.91-0.04-1.77-0.44-2.55-1.2c-0.74-0.72-1.16-1.45-1.24-2.18     c-0.09-0.72-0.01-1.4,0.23-2.02l0.05-0.13l2.46,0.3l-0.09,0.22c-0.2,0.48-0.26,0.85-0.18,1.12c0.08,0.28,0.22,0.51,0.4,0.68     c0.31,0.3,0.6,0.45,0.86,0.42c0.28-0.02,0.52-0.14,0.74-0.37l4.27-4.4l-1.47-1.42l1.67-1.72l4.22,4.09l-1.67,1.72l-0.77-0.75     l-4.26,4.39C99.59,44.29,98.73,44.71,97.85,44.71z M94.45,39.56c-0.18,0.53-0.23,1.11-0.16,1.72c0.08,0.65,0.46,1.31,1.14,1.97     c0.72,0.7,1.5,1.07,2.32,1.1c0.82,0.03,1.62-0.35,2.39-1.15l4.5-4.64l0.77,0.75l1.18-1.21l-3.71-3.6l-1.18,1.21l1.47,1.42     l-4.51,4.66c-0.28,0.29-0.6,0.45-0.96,0.48c-0.37,0.03-0.75-0.14-1.14-0.52c-0.23-0.22-0.39-0.5-0.5-0.84     c-0.09-0.3-0.06-0.68,0.11-1.14L94.45,39.56z"></path>
		</g>
		<g>
			<path class="st0" d="M111.46,57.24c-1.49,0.71-2.99,0.85-4.52,0.4c-1.52-0.44-2.69-1.52-3.51-3.22     c-0.82-1.71-0.92-3.28-0.29-4.71c0.63-1.43,1.67-2.49,3.14-3.19c1.53-0.73,3.05-0.86,4.56-0.4c1.51,0.47,2.66,1.53,3.45,3.18     c0.81,1.68,0.9,3.25,0.29,4.7C113.98,55.45,112.94,56.53,111.46,57.24z M110.28,54.93c1.12-0.54,1.87-1.21,2.25-2.03     c0.38-0.82,0.33-1.72-0.14-2.7c-0.5-1.05-1.2-1.65-2.09-1.82c-0.89-0.17-1.84-0.01-2.83,0.46c-0.96,0.46-1.68,1.09-2.15,1.9     c-0.47,0.81-0.44,1.77,0.09,2.88c0.49,1.02,1.17,1.62,2.04,1.79C108.31,55.58,109.25,55.42,110.28,54.93z"></path>
			<path class="st0" d="M108.69,58.07c-0.59,0-1.19-0.09-1.79-0.26c-1.57-0.46-2.78-1.57-3.62-3.31c-0.84-1.75-0.94-3.39-0.29-4.86     c0.64-1.46,1.73-2.56,3.23-3.28c1.56-0.75,3.14-0.89,4.69-0.41c1.55,0.48,2.75,1.58,3.56,3.27c0.82,1.72,0.92,3.35,0.3,4.84     c-0.62,1.49-1.71,2.61-3.22,3.33l0,0C110.6,57.85,109.65,58.07,108.69,58.07z M109.08,46.03c-0.9,0-1.81,0.22-2.72,0.65     c-1.42,0.68-2.45,1.72-3.05,3.11c-0.6,1.37-0.51,2.91,0.29,4.56c0.79,1.65,1.93,2.7,3.4,3.12c1.47,0.43,2.95,0.3,4.39-0.39l0,0     c1.43-0.68,2.45-1.74,3.04-3.15c0.59-1.4,0.49-2.93-0.29-4.55c-0.76-1.59-1.89-2.63-3.34-3.08     C110.23,46.12,109.66,46.03,109.08,46.03z M108.11,55.65c-0.24,0-0.48-0.02-0.71-0.07c-0.92-0.18-1.65-0.81-2.16-1.88     c-0.56-1.16-0.58-2.19-0.08-3.04c0.49-0.84,1.24-1.5,2.22-1.97c1.02-0.49,2.01-0.65,2.94-0.48c0.95,0.18,1.7,0.82,2.22,1.92     c0.49,1.03,0.54,1.98,0.14,2.85c-0.39,0.85-1.18,1.56-2.33,2.12l0,0C109.57,55.46,108.82,55.65,108.11,55.65z M109.59,48.49     c-0.66,0-1.34,0.17-2.05,0.51c-0.92,0.44-1.62,1.06-2.07,1.83c-0.45,0.76-0.42,1.65,0.09,2.71c0.47,0.98,1.09,1.53,1.91,1.69     c0.83,0.16,1.74,0,2.73-0.47l0,0c1.08-0.52,1.81-1.17,2.16-1.94c0.35-0.76,0.31-1.62-0.14-2.55c-0.48-1-1.12-1.56-1.97-1.72     C110.04,48.51,109.81,48.49,109.59,48.49z"></path>
		</g>
	</g>
</g>
</svg>
